<?xml version="1.0" standalone="no"?><!DOCTYPE svg PUBLIC "-//W3C//DTD SVG 1.1//EN" "http://www.w3.org/Graphics/SVG/1.1/DTD/svg11.dtd"><svg t="1593785959517" class="icon" viewBox="0 0 1251 1024" version="1.1" xmlns="http://www.w3.org/2000/svg" p-id="2175" xmlns:xlink="http://www.w3.org/1999/xlink" width="244.3359375" height="200"><defs><style type="text/css"></style></defs><path d="M0 0m52.867057 0l1057.341138 0q52.867057 0 52.867057 52.867057l0 0q0 52.867057-52.867057 52.867057l-1057.341138 0q-52.867057 0-52.867057-52.867057l0 0q0-52.867057 52.867057-52.867057Z" fill="#181818" p-id="2176"></path><path d="M0 422.936455m52.867057 0l1057.341138 0q52.867057 0 52.867057 52.867057l0 0q0 52.867057-52.867057 52.867057l-1057.341138 0q-52.867057 0-52.867057-52.867057l0 0q0-52.867057 52.867057-52.867057Z" fill="#181818" p-id="2177"></path><path d="M0 845.87291m52.867057 0l1057.341138 0q52.867057 0 52.867057 52.867057l0 0q0 52.867057-52.867057 52.867057l-1057.341138 0q-52.867057 0-52.867057-52.867057l0 0q0-52.867057 52.867057-52.867057Z" fill="#181818" p-id="2178"></path></svg>